<svg xmlns="http://www.w3.org/2000/svg" xmlns:xlink="http://www.w3.org/1999/xlink" width="200" height="200" class="icon" p-id="4608" t="1608105784913" version="1.1" viewBox="0 0 1024 1024"><defs><style type="text/css"/></defs><path d="M938.93632 679.3216L540.3136 429.568v-23.4496a40.96 40.96 0 0 1 21.73952-35.1232c15.91296-10.4448 60.22144-31.6416 60.22144-87.1424s-46.53056-93.7984-85.64736-101.888-81.55136-2.7648-111.616 30.208c-27.01312 29.4912-32.65536 52.9408-32.65536 104.3456h60.34432v-11.8784c0-27.4432 3.18464-56.5248 42.3936-64.4096a59.79136 59.79136 0 0 1 53.34016 14.0288 39.48544 39.48544 0 0 1-7.936 58.2656l-34.01728 23.1424a50.8928 50.8928 0 0 0-26.624 47.8208v46.1824L85.17632 678.5024C39.70048 706.56 39.70048 752.9472 48.19968 782.848c8.2944 29.184 35.10272 62.7712 93.83936 62.7712h744.8576a90.2656 90.2656 0 0 0 89.99936-63.6928c8.42752-30.0032 1.36192-79.4624-37.95968-102.6048zM885.76 780.1856H141.09696a26.44992 26.44992 0 0 1-14.99136-48.9472l386.39616-241.8688 388.47488 242.8928c23.9616 14.9504 9.00096 48.8448-15.21664 47.9232z" p-id="4609"/></svg>