<?xml version="1.0" standalone="no"?><!DOCTYPE svg PUBLIC "-//W3C//DTD SVG 1.1//EN" "http://www.w3.org/Graphics/SVG/1.1/DTD/svg11.dtd"><svg class="icon" width="200px" height="200.00px" viewBox="0 0 1024 1024" version="1.1" xmlns="http://www.w3.org/2000/svg"><path d="M362.427733 102.4c-17.988267 23.893333-33.348267 46.626133-46.114133 68.266667H278.357333c-15.2576 0-28.740267 9.898667-33.109333 24.405333l-76.663467 254.634667c-4.778667 15.9744-11.946667 31.1296-21.162666 45.056L108.885333 552.6528a33.792 33.792 0 0 0-5.12 24.917333l49.117867 264.328534a14.062933 14.062933 0 0 0 13.858133 11.400533h13.994667c11.502933 0 22.289067-5.666133 28.672-15.1552l38.6048-56.9344A69.3248 69.3248 0 0 1 305.425067 750.933333h414.378666c22.903467 0 44.3392 11.195733 57.173334 29.934934l39.5264 57.514666c6.417067 9.352533 17.134933 14.9504 28.5696 14.9504h13.312c6.144 0 11.400533-4.334933 12.4928-10.308266l49.322666-266.205867a33.792 33.792 0 0 0-5.12-24.917333l-38.468266-57.821867a169.745067 169.745067 0 0 1-21.230934-45.021867l-76.5952-254.020266a34.474667 34.474667 0 0 0-33.109333-24.3712h-37.9904c-12.765867-21.640533-28.125867-44.373333-46.114133-68.266667h84.104533c45.806933 0 86.2208 29.764267 99.328 73.147733L921.6 429.568c2.901333 9.557333 7.168 18.670933 12.731733 26.999467l38.5024 57.856c14.6432 22.016 20.138667 48.776533 15.36 74.717866l-49.3568 266.171734A81.578667 81.578667 0 0 1 858.350933 921.6h-13.277866a104.004267 104.004267 0 0 1-85.742934-44.885333L719.803733 819.2H305.425067l-38.570667 56.968533A103.970133 103.970133 0 0 1 180.736 921.6h-13.994667a82.944 82.944 0 0 1-81.8176-67.3792L35.84 589.892267a101.376 101.376 0 0 1 15.291733-74.683734l38.536534-57.924266c5.5296-8.362667 9.8304-17.476267 12.6976-27.0336l76.663466-254.634667A103.492267 103.492267 0 0 1 278.357333 102.4h84.0704z" fill="#4A4A4A" /><path d="M512 477.866667c94.242133 0 170.666667-74.513067 170.666667-166.4C682.666667 250.197333 625.7664 157.764267 512 34.133333c-113.7664 123.630933-170.666667 216.064-170.666667 277.333334C341.333333 403.3536 417.757867 477.866667 512 477.866667z m102.4-166.4C614.4 365.2608 568.9344 409.6 512 409.6s-102.4-44.3392-102.4-98.133333c0-31.4368 33.655467-91.818667 102.4-174.011734 68.744533 82.2272 102.4 142.574933 102.4 174.011734z" fill="#FF7214" /></svg>