<svg xmlns="http://www.w3.org/2000/svg" width="200" height="200" class="icon" version="1.1" viewBox="0 0 1024 1024"><path fill="#000" d="M810.581333 426.666667a128.042667 128.042667 0 1 1 0 256h-1.28l-4.352 0.298666H755.2c8.106667 15.914667 12.714667 33.92 12.714667 53.034667 0 65.28-49.152 117.589333-114.133334 117.589333-64.213333 0-103.04-37.632-113.493333-89.728a32 32 0 1 1 62.72-12.586666c4.864 24.106667 19.498667 38.314667 50.773333 38.314666 28.714667 0 50.133333-22.826667 50.133334-53.589333 0-29.397333-24.234667-53.333333-54.272-53.333333l-532.906667 0.298666a32 32 0 0 1-4.309333-63.744l4.352-0.256h528.512l4.352-0.298666c2.730667 0 5.418667 0.085333 8.106666 0.256l148.138667 0.085333 2.346667-0.256 8.533333-0.384a64.042667 64.042667 0 1 0-69.546667-73.514667l-1.152 10.197334A32 32 0 0 1 682.666667 546.858667 128.042667 128.042667 0 0 1 810.581333 426.666667zM416 746.666667a32 32 0 1 1 0 64 32 32 0 0 1 0-64zM512 170.666667a170.666667 170.666667 0 0 1 0.981333 341.333333H117.589333a32 32 0 0 1-4.352-63.701333l4.352-0.298667H512l6.997333-0.213333A106.666667 106.666667 0 1 0 405.333333 341.333333 32 32 0 1 1 341.333333 341.333333a170.666667 170.666667 0 0 1 170.666667-170.666666z m309.333333 106.666666a32 32 0 1 1 0 64 32 32 0 0 1 0-64zM245.333333 213.333333a32 32 0 1 1 0 64 32 32 0 0 1 0-64z"/></svg>