<svg xmlns="http://www.w3.org/2000/svg" width="200" height="200" class="icon" version="1.1" viewBox="0 0 1024 1024"><path fill="#000" d="M620.117333 748.928a32 32 0 1 1 0 64 32 32 0 0 1 0-64zM512 170.666667c135.210667 0 211.882667 89.472 223.061333 197.546666h3.413334A157.312 157.312 0 0 1 896 525.354667a157.312 157.312 0 0 1-157.525333 157.141333H682.666667a32 32 0 0 1-61.141334 0h-238.08l-67.498666 112.128a32 32 0 0 1-57.344-28.074667l1.92-3.925333 49.024-80.128h-24.021334a157.312 157.312 0 0 1-157.525333-157.141333 157.312 157.312 0 0 1 157.525333-157.098667h3.413334C300.202667 259.413333 376.832 170.666667 512 170.666667z m-18.005333 541.994666a32 32 0 0 1 13.653333 39.808l-1.92 3.925334-23.765333 38.229333a32 32 0 0 1-57.344-28.117333l1.92-3.882667 23.765333-38.229333a32 32 0 0 1 43.690667-11.690667z m232.789333 4.224a32 32 0 1 1 0 64 32 32 0 0 1 0-64z"/></svg>