<svg xmlns="http://www.w3.org/2000/svg" width="200" height="200" class="icon" version="1.1" viewBox="0 0 1024 1024"><path fill="#000" d="M416 774.442667a32 32 0 1 1 0 64 32 32 0 0 1 0-64z m192 0a32 32 0 1 1 0 64 32 32 0 0 1 0-64z m-288-42.666667a32 32 0 1 1 0 64 32 32 0 0 1 0-64z m192 0a32 32 0 1 1 0 64 32 32 0 0 1 0-64z m192 0a32 32 0 1 1 0 64 32 32 0 0 1 0-64zM512 170.709333c135.210667 0 211.882667 89.472 223.061333 197.546667h3.413334A157.312 157.312 0 0 1 896 525.354667a157.312 157.312 0 0 1-157.525333 157.141333H285.568a157.312 157.312 0 0 1-157.525333-157.141333 157.312 157.312 0 0 1 157.525333-157.098667h3.413333C300.202667 259.413333 376.832 170.666667 512 170.666667z"/></svg>