<?xml version="1.0" standalone="no"?><!DOCTYPE svg PUBLIC "-//W3C//DTD SVG 1.1//EN" "http://www.w3.org/Graphics/SVG/1.1/DTD/svg11.dtd"><svg class="icon" width="200px" height="200.00px" viewBox="0 0 1024 1024" version="1.1" xmlns="http://www.w3.org/2000/svg"><path fill="#000000" d="M458.666667 853.461333a32 32 0 1 1 0 64 32 32 0 0 1 0-64z m192 0a32 32 0 1 1 0 64 32 32 0 0 1 0-64z m-288-42.666666a32 32 0 1 1 0 64 32 32 0 0 1 0-64z m192 0a32 32 0 1 1 0 64 32 32 0 0 1 0-64z m192 0a32 32 0 1 1 0 64 32 32 0 0 1 0-64zM554.666667 256.768c135.253333 0 211.925333 89.472 223.061333 197.546667h3.413333A157.312 157.312 0 0 1 938.666667 611.413333a157.312 157.312 0 0 1-157.525334 157.141334H328.234667a157.312 157.312 0 0 1-157.525334-157.141334 157.312 157.312 0 0 1 157.525334-157.098666h3.413333c11.221333-108.8 87.893333-197.546667 223.061333-197.546667z m0 63.872c-88.32 0-165.376 69.674667-165.376 165.973333 0 15.232-13.610667 27.178667-29.184 27.178667h-29.44c-53.845333 0-97.450667 42.752-97.450667 95.445333s43.605333 95.402667 97.408 95.402667h448.128c53.802667 0 97.408-42.709333 97.408-95.402667 0-52.736-43.605333-95.445333-97.408-95.445333h-29.44c-15.616 0-29.226667-11.946667-29.226667-27.221333 0-97.493333-77.013333-165.930667-165.376-165.930667zM281.130667 85.76a215.808 215.808 0 0 1 96.554666 28.714667A215.722667 215.722667 0 0 1 471.893333 225.28c-21.333333 5.973333-41.088 14.378667-59.136 24.917333A151.637333 151.637333 0 0 0 319.274667 157.866667c6.826667 57.642667-2.005333 107.221333-26.538667 154.026666l-5.034667 9.130667C263.338667 362.666667 226.56 393.898667 171.690667 419.370667a153.813333 153.813333 0 0 0 45.653333 26.197333c-19.2 12.842667-36.053333 29.013333-49.749333 47.744l-6.570667-3.626667a215.893333 215.893333 0 0 1-70.058667-64.597333 32 32 0 0 1 15.573334-48.341333c70.101333-25.045333 107.818667-53.290667 129.450666-94.506667 23.552-45.013333 27.904-92.757333 12.245334-156.928a32 32 0 0 1 32.853333-39.552z" /></svg>