<svg xmlns="http://www.w3.org/2000/svg" width="200" height="200" class="icon" version="1.1" viewBox="0 0 1024 1024"><path fill="#000" d="M800 128c-10.624 0-21.12 0.736-31.584 2.24C708.672 48.832 614.368 0 512 0s-196.608 48.832-256.416 130.24C245.12 128.736 234.624 128 224 128 100.512 128 0 228.512 0 352s100.512 224 224 224c27.392 0 54.176-4.992 79.424-14.656C361.344 611.84 435.008 640 512 640c77.088 0 150.656-28.16 208.576-78.656C745.824 571.008 772.64 576 800 576c123.488 0 224-100.512 224-224S923.488 128 800 128zM800 512c-19.424 0-38.432-3.488-56.512-10.432l-36-13.824-28.992 25.344C632 553.664 572.864 576 512 576s-120-22.336-166.496-62.912l-28.992-25.344-36 13.824c-18.016 6.912-37.088 10.432-56.512 10.432-88.256 0-160-71.808-160-160s71.744-160 160-160c7.584 0 15.008 0.544 22.496 1.6l37.92 5.504 22.72-30.912C355.744 101.952 430.432 64 512 64c81.632 0 156.256 37.92 204.832 104.128l22.752 30.944 37.984-5.504C784.992 192.544 792.416 192 800 192c88.256 0 160 71.808 160 160S888.256 512 800 512zM192 640c-35.36 0-64 28.608-64 64s28.608 64 64 64 64-28.608 64-64S227.392 640 192 640zM512 704c-35.36 0-64 28.608-64 64s28.608 64 64 64 64-28.608 64-64S547.36 704 512 704zM832 640c-35.36 0-64 28.608-64 64s28.608 64 64 64 64-28.608 64-64S867.36 640 832 640zM704 896c-35.36 0-64 28.608-64 64s28.608 64 64 64 64-28.608 64-64S739.36 896 704 896zM320 896c-35.36 0-64 28.608-64 64s28.608 64 64 64 64-28.608 64-64S355.36 896 320 896z"/></svg>